# xmcd
#
# Track frame offsets: 
#        187
#        14747
#        25735
#        37182
#        57335
#        79910
#        93475
#        106902
#        121072
#        141695
#
# Disc length: 2094 seconds
#
# Revision: 12
# Processed by: cddbd v1.5.1PL0 Copyright (c) Steve Scherf et al.
# Submitted via: ExactAudioCopy v0.95a5
#
DISCID=8a082c0a
DTITLE=Various Artist - Today's New Country
DYEAR=1994
DGENRE=Country
TTITLE0=Vince Gill - One More Last Chance
TTITLE1=Alan Jackson - She's Got The Rhythm (And I Got The Blues)
TTITLE2=Tracy Byrd - Holdin' Heaven
TTITLE3=Wynonna - She Is His Only Need
TTITLE4=Radney Foster - Hammer and Nails
TTITLE5=Brooks and Dunn - Hard Workin' Man
TTITLE6=Mark Chesnutt - It Sure Is Monday
TTITLE7=McBride and The Ride - Love on the Loose, Heart on the Run
TTITLE8=Suzy Boggus - Letting Go
TTITLE9=George Strait - So much like my Dad
EXTD=(c)1994 K-Tel/MCA Special Markets and Products\nupc 022775-613520\n
EXTD=K-Tel 6135-2\nMCA MSD 35650\n YEAR: 1994
EXTT0=Vince Gill
EXTT1=Alan Jackson
EXTT2=Tracy Byrd
EXTT3=Wynonna
EXTT4=Radney Foster
EXTT5=Brooks and Dunn
EXTT6=Mark Chesnutt
EXTT7=McBride and The Ride
EXTT8=Suzy Boggus
EXTT9=George Strait
PLAYORDER=
